HIERARCHY
ROOT SpineBase
{
  OFFSET 0.000000 0.000000 0.000000
  CHANNELS 6 Xposition Yposition Zposition Zrotation Xrotation Yrotation
  JOINT SpineMid
  {
    OFFSET -0.000000 32.915206 0.000000
    CHANNELS 3 Zrotation Xrotation Yrotation
    JOINT SpineShoulder
    {
      OFFSET -0.128925 24.331722 -0.540854
      CHANNELS 3 Zrotation Xrotation Yrotation
      JOINT Neck
      {
        OFFSET -0.094610 8.054671 -0.482333
        CHANNELS 3 Zrotation Xrotation Yrotation
        JOINT Head
        {
          OFFSET -1.570045 10.090557 4.692143
          CHANNELS 3 Zrotation Xrotation Yrotation
          End Site
          {
            OFFSET 0 0 0
          }
        }
      }
      JOINT ShoulderLeft
      {
        OFFSET -7.288988 -7.015781 -13.303380
        CHANNELS 3 Zrotation Xrotation Yrotation
        JOINT ElbowLeft
        {
          OFFSET -4.175883 -27.037525 1.775919
          CHANNELS 3 Zrotation Xrotation Yrotation
          JOINT WristLeft
          {
            OFFSET -0.148258 -21.954873 15.891742
            CHANNELS 3 Zrotation Xrotation Yrotation
            JOINT HandLeft
            {
              OFFSET 0.222138 -6.037011 -1.536761
              CHANNELS 3 Zrotation Xrotation Yrotation
              JOINT HandTipLeft
              {
                OFFSET 0.815923 -4.198735 2.607160
                CHANNELS 3 Zrotation Xrotation Yrotation
                End Site
                {
                  OFFSET 0 0 0
                }
              }
              JOINT ThumbLeft
              {
                OFFSET -1.283424 3.523072 -4.676756
                CHANNELS 3 Zrotation Xrotation Yrotation
                End Site
                {
                  OFFSET 0 0 0
                }
              }
            }
          }
        }
      }
      JOINT ShoulderRight
      {
        OFFSET -2.302033 -4.328613 -11.761181
        CHANNELS 3 Zrotation Xrotation Yrotation
        JOINT ElbowRight
        {
          OFFSET -7.413539 -26.058264 -2.240725
          CHANNELS 3 Zrotation Xrotation Yrotation
          JOINT WristRight
          {
            OFFSET -4.963384 -18.248353 7.662508
            CHANNELS 3 Zrotation Xrotation Yrotation
            JOINT HandRight
            {
              OFFSET 3.502507 -6.962010 4.296015
              CHANNELS 3 Zrotation Xrotation Yrotation
              JOINT HandTipRight
              {
                OFFSET -0.650343 -3.924417 0.538114
                CHANNELS 3 Zrotation Xrotation Yrotation
                End Site
                {
                  OFFSET 0 0 0
                }
              }
              JOINT ThumbRight
              {
                OFFSET 1.383408 -4.952688 -7.618996
                CHANNELS 3 Zrotation Xrotation Yrotation
                End Site
                {
                  OFFSET 0 0 0
                }
              }
            }
          }
        }
      }
    }
  }
  JOINT HipLeft
  {
    OFFSET -6.719387 0.839327 -3.508354
    CHANNELS 3 Zrotation Xrotation Yrotation
    JOINT KneeLeft
    {
      OFFSET 27.689317 -30.705930 9.340842
      CHANNELS 3 Zrotation Xrotation Yrotation
      JOINT AnkleLeft
      {
        OFFSET 10.926457 -33.751924 2.671709
        CHANNELS 3 Zrotation Xrotation Yrotation
        JOINT FootLeft
        {
          OFFSET 2.506936 -3.683312 -12.637516
          CHANNELS 3 Zrotation Xrotation Yrotation
          End Site
          {
            OFFSET 0 0 0
          }
        }
      }
    }
  }
  JOINT HipRight
  {
    OFFSET 4.688548 0.755234 -1.906244
    CHANNELS 3 Zrotation Xrotation Yrotation
    JOINT KneeRight
    {
      OFFSET -1.876229 -32.485767 -3.832524
      CHANNELS 3 Zrotation Xrotation Yrotation
      JOINT AnkleRight
      {
        OFFSET 10.825660 -33.653559 -5.036330
        CHANNELS 3 Zrotation Xrotation Yrotation
        JOINT FootRight
        {
          OFFSET -4.186207 -7.742364 -0.607171
          CHANNELS 3 Zrotation Xrotation Yrotation
          End Site
          {
            OFFSET 0 0 0
          }
        }
      }
    }
  }
}
MOTION
Frames: 9
Frame Time: 0.033333
115.858682 73.126456 327.329918 0.000000 0.000000 -7.994237 -0.000000 0.000000 7.994237 -0.000000 0.000000 0.000000 -0.000000 0.000000 0.000000 0.000000 0.000000 0.000000 -0.000000 0.000000 0.000000 -0.000000 0.000000 0.000000 -0.000000 0.000000 0.000000 -0.000000 0.000000 0.000000 0.000000 0.000000 0.000000 0.000000 0.000000 0.000000 -0.000000 0.000000 0.000000 -0.000000 0.000000 0.000000 -0.000000 0.000000 0.000000 -0.000000 0.000000 0.000000 0.000000 0.000000 0.000000 0.000000 0.000000 0.000000 -0.000000 0.000000 7.994237 -0.000000 0.000000 0.000000 -0.000000 0.000000 0.000000 0.000000 0.000000 0.000000 -0.000000 0.000000 7.994237 -0.000000 0.000000 0.000000 -0.000000 0.000000 0.000000 0.000000 0.000000 0.000000
116.106593 72.882668 327.569703 0.071559 -0.082618 -12.369253 -0.087596 0.065371 12.369355 -0.000000 0.000000 0.000000 0.211580 -1.449651 -0.323087 0.000000 0.000000 0.000000 -0.000000 0.000000 0.000000 -0.000000 0.000000 0.000000 -3.655997 -1.571880 0.826805 2.763014 5.527377 -0.695672 0.000000 0.000000 0.000000 0.000000 0.000000 0.000000 -0.000000 0.000000 0.000000 -0.000000 0.000000 0.000000 -0.000000 0.000000 0.000000 -3.636178 -12.105697 1.107205 0.000000 0.000000 0.000000 0.000000 0.000000 0.000000 0.282781 -0.536234 11.842172 -0.239053 0.664801 0.530091 -0.591721 -0.093493 1.978406 0.000000 0.000000 0.000000 -0.496925 0.810083 12.353768 0.240552 -0.815029 0.020424 -0.000000 0.000000 0.000000 0.000000 0.000000 0.000000
116.323174 72.663279 327.804818 0.127456 -0.152236 -16.086984 -0.164650 0.110957 16.087313 -0.000000 0.000000 0.000000 0.388656 -2.793617 -0.612627 0.000000 0.000000 0.000000 -0.000000 0.000000 0.000000 -0.000000 0.000000 0.000000 -6.736301 -2.646080 1.475396 5.210609 9.480566 -1.360407 0.000000 0.000000 0.000000 0.000000 0.000000 0.000000 0.059762 -1.312573 0.369405 -0.051312 1.312930 -0.368132 -0.100344 1.036217 0.463097 -5.781276 -20.273215 0.838979 0.000000 0.000000 0.000000 0.000000 0.000000 0.000000 0.601144 -0.952959 15.120430 -1.089433 2.088437 1.230082 -0.508414 -1.063961 3.494716 0.000000 0.000000 0.000000 -0.960774 1.501944 16.053413 0.380619 -1.556813 0.050278 -0.000000 0.000000 0.000000 0.000000 0.000000 0.000000
116.508426 72.468286 328.035265 0.167853 -0.209009 -19.160477 -0.227155 0.142337 19.161066 -0.000000 0.000000 0.000000 0.533373 -4.033048 -0.870633 0.000000 0.000000 0.000000 -0.000000 0.000000 0.000000 -0.000000 0.000000 0.000000 -9.176675 -3.173628 1.989127 7.188328 11.912424 -1.965532 0.000000 0.000000 0.000000 0.000000 0.000000 0.000000 0.106625 -1.784165 0.500925 -0.091069 1.785026 -0.497846 -0.148320 1.339994 0.589006 -7.016532 -24.871027 0.728595 0.000000 0.000000 0.000000 0.000000 0.000000 0.000000 0.922792 -1.258586 17.841615 -1.586559 2.922214 1.715373 -0.693197 -1.548532 4.926250 0.000000 0.000000 0.000000 -1.351709 2.107439 19.103971 0.419983 -2.224710 0.087331 -0.635162 -0.549140 0.342784 0.000000 0.000000 0.000000
116.662349 72.297691 328.261042 0.192882 -0.253066 -21.616597 -0.272546 0.164210 21.617414 -0.000000 0.000000 0.000000 0.647590 -5.169379 -1.098846 0.000000 0.000000 0.000000 0.074039 1.145915 -0.172998 -0.070593 -1.146132 0.171551 -10.951650 -3.141755 2.404363 8.594367 12.918364 -2.483108 0.000000 0.000000 0.000000 0.000000 0.000000 0.000000 0.163478 -2.133576 0.597250 -0.141332 2.135156 -0.591572 -0.193862 1.507375 0.647108 -7.635937 -27.598424 0.671869 0.000000 0.000000 0.000000 0.000000 0.000000 0.000000 1.223415 -1.463774 20.031783 -2.044534 3.616842 2.108574 -0.833434 -1.993798 6.151218 0.000000 0.000000 0.000000 -1.639639 2.654957 21.530141 0.513410 -2.001695 0.375018 -1.116213 -1.343206 0.102887 0.000000 0.000000 0.000000
116.784941 72.151494 328.482149 0.202647 -0.284515 -23.484713 -0.299243 0.180190 23.485686 -0.000000 0.000000 0.000000 0.732882 -6.204181 -1.298748 0.000000 0.000000 0.000000 -0.095388 1.583768 -0.249766 0.273527 -2.373384 0.384418 -12.230500 -1.764832 2.786349 9.381342 12.606630 -2.900647 0.000000 0.000000 0.000000 0.000000 0.000000 0.000000 0.229607 -2.361704 0.658521 -0.202629 2.364170 -0.649607 -0.236835 1.540488 0.638039 -7.771523 -29.028905 0.745167 0.000000 0.000000 0.000000 0.000000 0.000000 0.000000 1.485844 -1.579223 21.719503 -2.458716 4.173365 2.405991 -0.930881 -2.395131 7.173894 0.000000 0.000000 0.000000 -1.801659 3.167153 23.359288 0.308279 -2.420699 0.458808 -1.446403 -1.322870 0.021648 0.000000 0.000000 0.000000
116.861970 72.015988 328.714744 0.191918 -0.292666 -24.561329 -0.296206 0.186408 24.562301 -0.000000 0.000000 0.000000 0.882018 -7.232042 -1.524051 0.000000 0.000000 0.000000 -0.808948 2.512711 -0.423685 1.036731 -3.472912 0.621030 -11.858904 0.648434 2.994958 8.231659 10.233244 -3.117283 0.000000 0.000000 0.000000 0.000000 0.000000 0.000000 0.201178 -2.305766 0.644255 -0.175389 2.307870 -0.636674 -0.050192 0.943423 0.446442 -6.263856 -26.681574 1.444183 0.000000 0.000000 0.000000 0.000000 0.000000 0.000000 1.728945 -1.595410 22.729573 -2.917298 4.595696 2.582583 -1.038081 -2.801250 8.354825 0.000000 0.000000 0.000000 -1.640896 3.569852 24.375317 -0.119706 -2.540134 0.572201 -1.575662 -1.420542 -0.080431 0.000000 0.000000 0.000000
116.899671 71.885779 328.932541 0.162268 -0.298254 -25.672866 -0.275464 0.198509 25.673766 -0.000000 0.000000 0.000000 0.861901 -8.163752 -1.664867 0.000000 0.000000 0.000000 -1.099469 2.870208 -0.488140 1.317405 -3.735357 0.692757 -11.422097 -0.236248 2.771906 9.378867 10.754769 -2.208467 0.000000 0.000000 0.000000 0.000000 0.000000 0.000000 0.218212 -2.137280 0.594701 -0.196158 2.139416 -0.586968 -0.000000 0.000000 0.000000 -6.286004 -25.482496 1.930689 0.000000 0.000000 0.000000 0.000000 0.000000 0.000000 1.964811 -1.559993 23.809504 -3.342829 4.966205 2.720727 -1.170650 -3.210138 9.554373 0.000000 0.000000 0.000000 -1.281474 4.295317 25.373335 -1.072254 -3.042750 0.678645 -1.582185 -1.191096 -0.218050 0.000000 0.000000 0.000000
116.942621 71.826508 329.136503 0.144291 -0.310690 -25.958116 -0.265729 0.216186 25.959009 -0.000000 0.000000 0.000000 0.808289 -8.897766 -1.761891 0.000000 0.000000 0.000000 -1.147310 2.986557 -0.506904 1.175260 -2.975677 0.567340 -10.704091 0.267762 2.775062 8.441502 6.735503 -2.730439 0.000000 0.000000 0.000000 0.000000 0.000000 0.000000 0.467518 -2.211270 0.599688 -0.444687 2.215972 -0.582065 -0.000000 0.000000 0.000000 -6.945362 -27.612547 1.919999 0.000000 0.000000 0.000000 0.000000 0.000000 0.000000 1.993831 -1.436677 24.179008 -3.548884 5.099824 2.703814 -1.220885 -3.481870 10.181424 0.000000 0.000000 0.000000 -1.031553 4.912124 25.570093 -1.728570 -3.615786 0.705875 -2.162074 -0.493517 -0.433544 0.000000 0.000000 0.000000
